<svg xmlns="http://www.w3.org/2000/svg" width="73" height="58" viewBox="0 0 73 58">
    <path fill="#0071CE" fill-rule="evenodd" d="M59.067 54.978c-2.21-.007-3.998-1.737-4.002-3.89.004-2.149 1.792-3.882 4.002-3.889 2.22.007 4.008 1.743 4.012 3.89-.004 2.149-1.792 3.889-4.012 3.889zm0-10.489c-3.753 0-6.792 2.958-6.792 6.6 0 3.644 3.042 6.598 6.792 6.598 3.76-.006 6.802-2.951 6.802-6.599 0-3.647-3.043-6.599-6.802-6.599zm-35.1 10.489c-2.213-.007-4.005-1.74-4.005-3.89 0-2.146 1.795-3.882 4.005-3.889 2.213.007 4.002 1.74 4.002 3.89 0 2.149-1.789 3.889-4.002 3.889zm0-10.489c-3.756 0-6.795 2.955-6.795 6.6 0 3.647 3.039 6.598 6.795 6.598 3.753-.01 6.786-2.951 6.796-6.599 0-3.644-3.04-6.599-6.796-6.599zm44.344-34.233l-8.335 20.487H30.753l-7.456-20.487h45.014zM28.785 33.453h33.092L72.413 7.546H19.358l.654 1.808 8.773 24.1zm-12.36 3.422v-.3c.007-1.61 1.337-2.906 3.006-2.912h3.335L10.021 0H0v2.71h8.076L18.784 30.99c-2.903.316-5.143 2.694-5.146 5.581v.31c.003 3.103 2.585 5.606 5.787 5.62h49.251v-2.714H19.425c-1.663-.006-2.993-1.299-3-2.913z"/>
</svg>
