<?xml version="1.0" encoding="UTF-8"?>
<svg width="22px" height="18px" viewBox="0 0 22 18" version="1.1" xmlns="http://www.w3.org/2000/svg" xmlns:xlink="http://www.w3.org/1999/xlink">
    <!-- Generator: Sketch 53.1 (72631) - https://sketchapp.com -->
    <title>Cart</title>
    <desc>Created with Sketch.</desc>
    <g id="Cart" stroke="none" stroke-width="1" fill="none" fill-rule="evenodd">
        <path d="M17.801,17.062 C17.135,17.06 16.596,16.523 16.595,15.855 C16.596,15.188 17.135,14.65 17.801,14.648 C18.47,14.65 19.009,15.189 19.01,15.855 C19.009,16.522 18.47,17.062 17.801,17.062 Z M17.801,13.807 C16.67,13.807 15.754,14.725 15.754,15.855 C15.754,16.986 16.671,17.903 17.801,17.903 C18.934,17.901 19.851,16.987 19.851,15.855 C19.851,14.723 18.934,13.807 17.801,13.807 Z M7.223,17.062 C6.556,17.06 6.016,16.522 6.016,15.855 C6.016,15.189 6.557,14.65 7.223,14.648 C7.89,14.65 8.429,15.188 8.429,15.855 C8.429,16.522 7.89,17.062 7.223,17.062 Z M7.223,13.807 C6.091,13.807 5.175,14.724 5.175,15.855 C5.175,16.987 6.091,17.903 7.223,17.903 C8.354,17.9 9.268,16.987 9.271,15.855 C9.271,14.724 8.355,13.807 7.223,13.807 Z M20.587,3.183 L18.075,9.541 L9.268,9.541 L7.021,3.183 L20.587,3.183 Z M8.675,10.382 L18.648,10.382 L21.823,2.342 L5.834,2.342 L6.031,2.903 L8.675,10.382 Z M4.95,11.444 L4.95,11.351 C4.952,10.851 5.353,10.449 5.856,10.447 L6.861,10.447 L3.02,0 L0,0 L0,0.841 L2.434,0.841 L5.661,9.618 C4.786,9.716 4.111,10.454 4.11,11.35 L4.11,11.446 C4.111,12.409 4.889,13.186 5.854,13.19 L20.697,13.19 L20.697,12.348 L5.854,12.348 C5.353,12.346 4.952,11.945 4.95,11.444 L4.95,11.444 Z" id="Fill-1" fill="#F3B43F"></path>
    </g>
</svg>